# xmcd
#
# Track frame offsets:
#	150
#	18127
#	37965
#	48280
#	78485
#	101202
#	122020
#	142977
#
# Disc length: 2026 seconds
# Revision: 0
# Processed by: cddbd v1.5.2PL0 Copyright (c) Steve Scherf et al.
# Submitted via: dBpowerAMP V12.0
#
DISCID=5c07e808
DTITLE=Face Down - Love Tha Streets
DYEAR=1999
DGENRE=Chicago Rap
TTITLE0=One Life to Live
TTITLE1=How Do You want It?
TTITLE2=Bulit Talkin
TTITLE3=Six Minutes
TTITLE4=My Business
TTITLE5=Love These Streets
TTITLE6=K.P.D.
TTITLE7=Outro
EXTD=
EXTT0=
EXTT1=
EXTT2=
EXTT3=
EXTT4=
EXTT5=
EXTT6=
EXTT7=
PLAYORDER=
